#!OML:ASF X:\für Bonn\!DataBase\2005_08_12_Daniel\c3d\Daniel.ASF
:FULLY-SPECIFIED
:DEGREES
232
root -0.198394 6.70054 -14.6253 326.097 27.7228 -2.05461
lowerback 74.7478 -6.45915 9.01548
upperback 12.3336 1.45066 -0.349546
thorax -6.48986 1.67102 -4.58494
lowerneck -0.472269 -6.41884 -2.58498
upperneck 17.6346 -9.37416 7.16196
head 5.86249 -4.15633 2.18294
rclavicle 3.18055e-015 -1.59028e-015
rhumerus 66.0388 -67.2074 -168.601
rradius 10.3175
rwrist 158.406
rhand -39.5976 9.35354
rfingers 7.12502
rthumb -12.5799 -20.2477
lclavicle 3.18055e-015 -1.59028e-015
lhumerus -12.3272 7.12767 91.5328
lradius 43.0767
lwrist -11.9373
lhand -12.2007 -8.35393
lfingers 7.12502
lthumb 13.8636 21.164
rfemur 162.268 41.9879 42.3693
rtibia 201.221
rfoot -126.512 -266.344
rtoes 14.3623
lfemur -55.2324 73.2219 39.7969
ltibia 155.603
lfoot -60.1306 -76.7932
ltoes 14.5171
233
root -0.198006 6.75192 -14.6328 326.235 27.7883 -1.97138
lowerback 74.8682 -6.45195 8.88103
upperback 12.2273 1.36741 -0.377319
thorax -6.61933 1.62123 -4.53152
lowerneck -0.5419 -6.44539 -2.4656
upperneck 17.5965 -9.4063 7.09151
head 5.85552 -4.16936 2.1373
rclavicle -1.19271e-014 -2.78299e-014
rhumerus 68.0613 -67.5367 -170.74
rradius 10.534
rwrist 157.83
rhand -38.9993 8.6316
rfingers 7.12502
rthumb -12.003 -21.0042
lclavicle -1.19271e-014 -2.78299e-014
lhumerus -12.1021 7.64137 91.5798
lradius 42.4464
lwrist -12.5224
lhand -12.0384 -8.3244
lfingers 7.12502
lthumb 14.02 21.1828
rfemur 18.4017 -42.2253 -137.072
rtibia 158.415
rfoot -113.413 -273.654
rtoes 14.3184
lfemur -56.2645 72.4234 37.6117
ltibia 155.241
lfoot -58.2339 -76.0388
ltoes 14.4988
234
root -0.197465 6.80979 -14.6417 326.413 27.8344 -1.86277
lowerback 74.9843 -6.44082 8.74284
upperback 12.1276 1.27933 -0.427384
thorax -6.74186 1.57245 -4.50069
lowerneck -0.596268 -6.46942 -2.3486
upperneck 17.5257 -9.43986 7.06417
head 5.83778 -4.18198 2.10626
rclavicle -5.48646e-014 -4.92986e-014
rhumerus 70.3834 -67.8235 -173.209
rradius 10.7453
rwrist 157.063
rhand -38.4202 7.91651
rfingers 7.12502
rthumb -11.4445 -21.7511
lclavicle -5.48646e-014 -4.92986e-014
lhumerus -11.8105 8.08738 91.59
lradius 41.7564
lwrist -13.1171
lhand -11.9429 -8.37904
lfingers 7.12502
lthumb 14.112 21.1217
rfemur 19.1353 -42.5778 -136.428
rtibia 158.01
rfoot -99.3723 -273.897
rtoes 14.1932
lfemur -57.3694 71.5017 35.2382
ltibia 154.826
lfoot -56.3716 -75.212
ltoes 14.3707
235
root -0.196475 6.87329 -14.651 326.602 27.8834 -1.74986
lowerback 75.1317 -6.42555 8.59273
upperback 11.992 1.19171 -0.465464
thorax -6.9042 1.51876 -4.45151
lowerneck -0.531976 -6.4788 -2.31304
upperneck 17.4181 -9.45204 7.08226
head 5.79279 -4.19009 2.10844
rclavicle -1.74931e-014 -1.19271e-014
rhumerus 72.7888 -68.1268 -175.74
rradius 10.915
rwrist 155.961
rhand -37.7273 7.29764
rfingers 7.12502
rthumb -10.7762 -22.4059
lclavicle -1.74931e-014 -1.19271e-014
lhumerus -11.5514 8.64388 91.6242
lradius 41.0236
lwrist -13.8286
lhand -11.8298 -8.49743
lfingers 7.12502
lthumb 14.221 20.9957
rfemur 19.8943 -42.9184 -135.754
rtibia 157.578
rfoot -87.0344 -274.413
rtoes 13.9392
lfemur -58.3822 70.4926 32.8557
ltibia 154.375
lfoot -54.6625 -74.2505
ltoes 14.0655
236
root -0.195342 6.94255 -14.6614 326.78 27.9007 -1.65799
lowerback 75.2847 -6.43364 8.49368
upperback 11.8712 1.11539 -0.519629
thorax -7.0431 1.4759 -4.4445
lowerneck -0.4304 -6.49237 -2.2767
upperneck 17.2667 -9.46929 7.11918
head 5.72887 -4.2016 2.11777
rclavicle 6.36111e-015 5.08889e-014
rhumerus 75.2457 -68.3256 -178.275
rradius 11.0135
rwrist 154.529
rhand -36.9154 6.57402
rfingers 7.12502
rthumb -9.99302 -23.1688
lclavicle 6.36111e-015 5.08889e-014
lhumerus -11.2349 9.05846 91.6621
lradius 40.2723
lwrist -14.4191
lhand -11.8287 -8.55653
lfingers 7.12502
lthumb 14.222 20.9366
rfemur 20.6869 -43.3751 -134.89
rtibia 157.077
rfoot -76.4266 -275.087
rtoes 13.7068
lfemur -59.4254 69.318 30.3945
ltibia 153.872
lfoot -52.7875 -73.2629
ltoes 13.9668
237
root -0.193618 7.01867 -14.6731 326.983 27.9379 -1.53826
lowerback 75.4328 -6.43589 8.36086
upperback 11.7481 1.01779 -0.577485
thorax -7.18922 1.42288 -4.42028
lowerneck -0.244361 -6.49312 -2.21236
upperneck 17.0549 -9.4637 7.14205
head 5.62858 -4.20518 2.12317
rclavicle -8.74653e-014 -1.27222e-014
rhumerus 77.5567 -68.5014 -180.694
rradius 11.1025
rwrist 152.728
rhand -36.0269 5.87608
rfingers 7.12502
rthumb -9.13573 -23.906
lclavicle -8.74653e-014 -1.27222e-014
lhumerus -10.9488 9.45552 91.7004
lradius 39.5577
lwrist -14.966
lhand -11.9174 -8.63297
lfingers 7.12502
lthumb 14.1366 20.8661
rfemur 21.4608 -43.8999 -133.956
rtibia 156.524
rfoot -67.779 -275.835
rtoes 13.5708
lfemur -60.6083 67.9231 27.6634
ltibia 153.324
lfoot -50.8107 -72.1706
ltoes 13.7321
238
root -0.191399 7.10237 -14.6846 327.194 27.9363 -1.41637
lowerback 75.6049 -6.41758 8.23515
upperback 11.6112 0.949311 -0.629062
thorax -7.34678 1.38114 -4.40362
lowerneck -0.0859186 -6.4989 -2.20726
upperneck 16.9032 -9.46937 7.19441
head 5.55667 -4.21329 2.14517
rclavicle 1.03368e-014 -4.05521e-014
rhumerus 80.1049 -68.6509 -183.294
rradius 11.0595
rwrist 150.634
rhand -35.0378 5.02796
rfingers 7.12502
rthumb -8.18126 -24.7937
lclavicle 1.03368e-014 -4.05521e-014
lhumerus -10.6842 9.7652 91.7527
lradius 38.8663
lwrist -15.384
lhand -12.0928 -8.66707
lfingers 7.12502
lthumb 13.9676 20.8437
rfemur 22.192 -44.5021 -132.862
rtibia 155.917
rfoot -60.9527 -276.739
rtoes 13.4258
lfemur -61.4943 66.4377 25.1383
ltibia 152.706
lfoot -48.9534 -71.0317
ltoes 13.6177
239
root -0.189244 7.19253 -14.6961 327.43 27.9317 -1.2967
lowerback 75.7522 -6.40187 8.12212
upperback 11.4838 0.881777 -0.689827
thorax -7.49454 1.34207 -4.40332
lowerneck 0.0696801 -6.50865 -2.14786
upperneck 16.698 -9.4747 7.21078
head 5.46451 -4.22206 2.14764
rclavicle -6.36111e-015 3.26007e-014
rhumerus 82.3823 -68.7303 -185.615
rradius 11.0428
rwrist 148.277
rhand -33.9067 4.31505
rfingers 7.12502
rthumb -7.08955 -25.5462
lclavicle -6.36111e-015 3.26007e-014
lhumerus -10.4603 10.0335 91.7891
lradius 38.2832
lwrist -15.8253
lhand -12.2521 -8.65422
lfingers 7.12502
lthumb 13.814 20.8671
rfemur 22.9107 -45.1784 -131.619
rtibia 155.244
rfoot -55.2007 -277.704
rtoes 13.2804
lfemur -62.353 64.7956 22.5879
ltibia 152.05
lfoot -47.3244 -69.747
ltoes 13.2881
